<svg width="11" height="10" viewBox="0 0 11 10" fill="none" xmlns="http://www.w3.org/2000/svg">
<path d="M5.35222 8.11974C5.44361 8.06827 5.55524 8.06827 5.64663 8.11974L8.37827 9.65801C8.6077 9.78721 8.88038 9.57928 8.81651 9.32383L8.10689 6.48574C8.07857 6.37246 8.11854 6.25305 8.20935 6.17965L10.5552 4.28353C10.7661 4.11309 10.6606 3.77255 10.3903 3.75115L7.26087 3.50343C7.15207 3.49482 7.05654 3.42781 7.0114 3.32844L5.77256 0.601283C5.66601 0.366718 5.33284 0.366719 5.22628 0.601284L3.98745 3.32844C3.94231 3.42781 3.84677 3.49482 3.73798 3.50343L0.608514 3.75115C0.338217 3.77255 0.23273 4.11309 0.443603 4.28353L2.7895 6.17965C2.88031 6.25305 2.92028 6.37246 2.89196 6.48574L2.18234 9.32383C2.11846 9.57928 2.39115 9.78721 2.62058 9.65801L5.35222 8.11974Z" fill="#FF6F61"/>
</svg>
